<svg xmlns="http://www.w3.org/2000/svg" xmlns:xlink="http://www.w3.org/1999/xlink" version="1.1" x="0px" y="0px" viewBox="0 0 90 70" enable-background="new 0 0 90 90" xml:space="preserve"><g><path fill="#fff" d="M46.352,44.891c0-0.017-0.003-0.032-0.003-0.049c0-0.017,0.003-0.033,0.003-0.05   c-0.327,0.024-0.655,0.041-0.986,0.049C45.696,44.85,46.024,44.867,46.352,44.891z"/><path fill="#fff" d="M62.745,65.445c0.422,0.057,0.846,0.104,1.274,0.136c-0.001-0.536-0.035-1.065-0.08-1.591   c-0.431-0.036-0.854-0.097-1.275-0.161C62.717,64.36,62.74,64.9,62.745,65.445z"/><path fill="#fff" d="M46.432,43.199c0.037-0.43,0.098-0.853,0.162-1.274c-0.532,0.053-1.073,0.076-1.617,0.082   c-0.058,0.421-0.104,0.844-0.137,1.273C45.377,43.278,45.906,43.244,46.432,43.199z"/><path fill="#ffffff" d="M86.399,44.841c0-11.488-9.307-20.803-20.791-20.818c0,0.009,0.001,0.019,0.001,0.028   c0,0.527-0.04,1.044-0.079,1.561c0.017,0,0.033-0.002,0.05-0.002c10.622,0,19.231,8.61,19.231,19.232   c0,10.621-8.609,19.231-19.231,19.231c-0.017,0-0.033-0.003-0.05-0.003c0.039,0.518,0.079,1.034,0.079,1.561   c0,0.01-0.001,0.019-0.001,0.028C77.093,65.644,86.399,56.329,86.399,44.841z"/><path fill="#ffffff" d="M62.664,25.854c0.422-0.064,0.845-0.125,1.275-0.161c0.045-0.526,0.079-1.055,0.08-1.592   c-0.429,0.032-0.853,0.079-1.274,0.137C62.74,24.782,62.717,25.322,62.664,25.854z"/><path fill="#ffffff" d="M46.858,49.18c-0.549-0.068-1.105-0.109-1.669-0.122c1.669,8.114,8.061,14.506,16.176,16.175   c-0.013-0.563-0.054-1.12-0.122-1.668C54.11,61.917,48.505,56.312,46.858,49.18z"/><path fill="#ffffff" d="M45.189,40.626c0.564-0.014,1.12-0.054,1.669-0.122c1.647-7.133,7.252-12.738,14.385-14.385   c0.068-0.549,0.109-1.105,0.122-1.669C53.25,26.119,46.858,32.51,45.189,40.626z"/><path fill="#ffffff" d="M44.84,46.403c0.032,0.428,0.079,0.852,0.137,1.272c0.544,0.005,1.084,0.028,1.616,0.081   c-0.064-0.422-0.125-0.844-0.161-1.273C45.906,46.438,45.377,46.404,44.84,46.403z"/><path fill="#ffffff" d="M62.149,28.606c0.447-0.094,0.904-0.16,1.363-0.217c0.108-0.467,0.192-0.942,0.266-1.421   c-0.444,0.044-0.877,0.121-1.311,0.197C62.382,27.652,62.273,28.132,62.149,28.606z"/><path fill="#ffffff" d="M47.902,47.953c0.488,0.086,0.968,0.193,1.442,0.317c-0.095-0.446-0.16-0.902-0.217-1.361   c-0.468-0.107-0.942-0.191-1.422-0.265C47.75,47.088,47.827,47.521,47.902,47.953z"/><path fill="#ffffff" d="M65.58,28.247c9.166,0,16.594,7.429,16.594,16.595c0,9.165-7.428,16.595-16.594,16.595   c-0.135,0-0.265-0.017-0.398-0.021c0.093,0.453,0.149,0.918,0.213,1.38c0.062,0.001,0.123,0.01,0.186,0.01   c9.923,0,17.965-8.043,17.965-17.964c0-9.922-8.043-17.965-17.965-17.965c-0.062,0-0.123,0.009-0.186,0.009   c-0.063,0.463-0.12,0.928-0.213,1.381C65.315,28.264,65.445,28.247,65.58,28.247z"/><path fill="#ffffff" d="M62.15,61.077c0.124,0.474,0.231,0.953,0.317,1.441c0.434,0.075,0.866,0.151,1.311,0.196   c-0.073-0.479-0.157-0.954-0.265-1.421C63.054,61.237,62.598,61.172,62.15,61.077z"/><path fill="#ffffff" d="M47.706,43.038c0.479-0.073,0.954-0.157,1.422-0.265c0.057-0.459,0.123-0.916,0.217-1.362   c-0.474,0.124-0.953,0.232-1.442,0.317C47.827,42.162,47.75,42.595,47.706,43.038z"/><path fill="#ffffff" d="M48.221,40.287c0.514-0.108,1.02-0.236,1.515-0.391c1.617-5.188,5.712-9.283,10.9-10.9   c0.154-0.495,0.283-1.001,0.391-1.515C54.771,29.119,49.857,34.031,48.221,40.287z"/><path fill="#ffffff" d="M49.735,49.786c-0.495-0.154-1.001-0.282-1.515-0.39c1.638,6.255,6.551,11.167,12.806,12.805   c-0.107-0.514-0.235-1.02-0.39-1.514C55.448,59.07,51.353,54.975,49.735,49.786z"/><path fill="#ffffff" d="M47.615,44.841c0,0.063,0.009,0.123,0.01,0.186c0.463,0.063,0.928,0.12,1.381,0.212   c-0.004-0.133-0.021-0.264-0.021-0.398c0-0.135,0.017-0.266,0.021-0.399c-0.453,0.093-0.918,0.149-1.381,0.212   C47.624,44.718,47.615,44.778,47.615,44.841z"/><path fill="#ffffff" d="M43.148,46.483c-0.036,0.43-0.097,0.853-0.161,1.273c0.532-0.053,1.073-0.076,1.617-0.081   c0.058-0.421,0.104-0.845,0.136-1.272C44.203,46.404,43.674,46.438,43.148,46.483z"/><path fill="#ffffff" d="M26.835,24.237c-0.421-0.058-0.845-0.104-1.273-0.137c0.001,0.537,0.036,1.066,0.081,1.592   c0.43,0.036,0.853,0.097,1.275,0.161C26.864,25.322,26.841,24.782,26.835,24.237z"/><path fill="#ffffff" d="M24.05,64.07c-0.017,0-0.033,0.003-0.049,0.003c-10.621,0-19.231-8.61-19.231-19.231   C4.769,34.22,13.378,25.61,24,25.61c0.017,0,0.033,0.002,0.049,0.002c-0.038-0.517-0.079-1.034-0.079-1.562   c0-0.009,0.001-0.018,0.001-0.027c-11.484,0.015-20.792,9.33-20.792,20.818c0,11.488,9.307,20.802,20.792,20.818   c0-0.01-0.001-0.019-0.001-0.028C23.971,65.104,24.012,64.588,24.05,64.07z"/><path fill="#ffffff" d="M26.917,63.829c-0.422,0.064-0.844,0.125-1.274,0.161c-0.044,0.525-0.079,1.055-0.081,1.591   c0.429-0.031,0.853-0.079,1.273-0.136C26.841,64.9,26.864,64.36,26.917,63.829z"/><path fill="#ffffff" d="M42.721,40.503c0.549,0.068,1.106,0.109,1.67,0.123c-1.669-8.115-8.061-14.507-16.175-16.176   c0.014,0.564,0.054,1.121,0.122,1.669C35.471,27.767,41.074,33.371,42.721,40.503z"/><path fill="#ffffff" d="M43.229,44.791c0,0.017,0.002,0.034,0.002,0.051c0,0.017-0.002,0.033-0.002,0.049   c0.327-0.024,0.656-0.041,0.987-0.05C43.884,44.832,43.555,44.815,43.229,44.791z"/><path fill="#ffffff" d="M44.74,43.28c-0.032-0.429-0.079-0.853-0.136-1.273c-0.545-0.006-1.085-0.029-1.618-0.082   c0.064,0.422,0.125,0.844,0.162,1.275C43.674,43.244,44.203,43.278,44.74,43.28z"/><path fill="#ffffff" d="M44.391,49.058c-0.564,0.013-1.121,0.054-1.669,0.122c-1.647,7.133-7.251,12.737-14.384,14.384   c-0.068,0.549-0.108,1.104-0.122,1.669C36.331,63.562,42.722,57.172,44.391,49.058z"/><path fill="#ffffff" d="M39.844,39.896c0.496,0.155,1.002,0.283,1.516,0.391c-1.638-6.255-6.551-11.167-12.805-12.805   c0.108,0.514,0.236,1.02,0.391,1.515C34.133,30.613,38.227,34.708,39.844,39.896z"/><path fill="#ffffff" d="M41.36,49.396c-0.514,0.107-1.021,0.236-1.516,0.391c-1.617,5.188-5.711,9.282-10.899,10.899   c-0.154,0.495-0.283,1.001-0.391,1.515C34.81,60.563,39.723,55.651,41.36,49.396z"/><path fill="#ffffff" d="M41.965,44.841c0-0.063-0.009-0.124-0.009-0.187c-0.463-0.063-0.929-0.12-1.382-0.213   c0.003,0.134,0.02,0.265,0.02,0.4c0,0.135-0.017,0.265-0.02,0.398c0.453-0.093,0.918-0.149,1.382-0.213   C41.957,44.965,41.965,44.904,41.965,44.841z"/><path fill="#ffffff" d="M41.678,41.728c-0.489-0.085-0.969-0.193-1.443-0.318c0.094,0.447,0.16,0.903,0.217,1.362   c0.468,0.108,0.943,0.192,1.422,0.266C41.83,42.595,41.754,42.161,41.678,41.728z"/><path fill="#ffffff" d="M27.431,28.605c-0.124-0.474-0.232-0.953-0.317-1.441c-0.433-0.076-0.867-0.152-1.31-0.196   c0.073,0.479,0.158,0.954,0.266,1.421C26.528,28.446,26.984,28.512,27.431,28.605z"/><path fill="#ffffff" d="M24,61.437c-9.166,0-16.596-7.43-16.596-16.595c0-9.166,7.43-16.595,16.596-16.595   c0.135,0,0.265,0.017,0.399,0.02c-0.093-0.453-0.149-0.918-0.213-1.381c-0.062,0-0.123-0.009-0.186-0.009   c-9.922,0-17.965,8.043-17.965,17.965c0,9.921,8.043,17.964,17.965,17.964c0.063,0,0.124-0.009,0.186-0.01   c0.063-0.462,0.12-0.927,0.212-1.38C24.265,61.42,24.135,61.437,24,61.437z"/><path fill="#ffffff" d="M26.068,61.294c-0.108,0.467-0.192,0.941-0.265,1.421c0.444-0.045,0.876-0.121,1.31-0.196   c0.085-0.488,0.193-0.968,0.317-1.441C26.984,61.171,26.527,61.237,26.068,61.294z"/><path fill="#ffffff" d="M41.875,46.645c-0.48,0.073-0.955,0.157-1.422,0.266c-0.058,0.459-0.123,0.915-0.217,1.361   c0.474-0.124,0.954-0.232,1.442-0.318C41.754,47.521,41.83,47.088,41.875,46.645z"/><path fill="#ffffff" d="M49.128,42.773c-0.068,0.549-0.108,1.105-0.122,1.669c8.115-1.669,14.506-8.061,16.176-16.176   c-0.564,0.014-1.12,0.054-1.669,0.122C61.865,35.521,56.261,41.126,49.128,42.773z"/><path fill="#ffffff" d="M25.562,24.101c0-0.017-0.002-0.033-0.002-0.05c0-10.622,8.61-19.231,19.232-19.231   c10.621,0,19.231,8.609,19.231,19.231c0,0.017-0.003,0.033-0.003,0.05c0.518-0.038,1.034-0.079,1.561-0.079   c0.01,0,0.019,0.001,0.028,0.001c-0.016-11.485-9.33-20.792-20.818-20.792c-11.488,0-20.803,9.307-20.818,20.792   c0.009,0,0.019-0.001,0.028-0.001C24.527,24.022,25.044,24.062,25.562,24.101z"/><path fill="#ffffff" d="M46.352,44.792c0.429-0.032,0.852-0.079,1.273-0.137c0.005-0.544,0.028-1.085,0.081-1.617   c-0.422,0.064-0.844,0.125-1.274,0.161C46.387,43.725,46.353,44.254,46.352,44.792z"/><path fill="#ffffff" d="M44.84,43.28c-0.016,0-0.032,0.002-0.049,0.002c-0.017,0-0.034-0.002-0.051-0.002   c0.024,0.327,0.041,0.655,0.05,0.986C44.799,43.935,44.816,43.606,44.84,43.28z"/><path fill="#ffffff" d="M25.803,26.968c-0.064-0.422-0.125-0.845-0.161-1.275c-0.526-0.044-1.055-0.079-1.592-0.081   c0.032,0.429,0.079,0.853,0.137,1.273C24.731,26.892,25.271,26.915,25.803,26.968z"/><path fill="#ffffff" d="M63.778,26.967c0.531-0.053,1.071-0.076,1.616-0.082c0.057-0.421,0.104-0.845,0.136-1.273   c-0.536,0.001-1.065,0.036-1.591,0.081C63.903,26.123,63.843,26.545,63.778,26.967z"/><path fill="#ffffff" d="M40.574,44.442c-0.014-0.564-0.054-1.121-0.123-1.669c-7.132-1.647-12.736-7.251-14.383-14.384   c-0.549-0.068-1.105-0.108-1.669-0.122C26.069,36.381,32.459,42.772,40.574,44.442z"/><path fill="#ffffff" d="M43.148,43.199c-0.43-0.036-0.852-0.097-1.274-0.161c0.053,0.532,0.076,1.072,0.082,1.617   c0.421,0.058,0.844,0.104,1.272,0.136C43.227,44.254,43.192,43.725,43.148,43.199z"/><path fill="#ffffff" d="M44.791,44.812c0.009,0,0.018,0.001,0.027,0.001c0-0.185-0.022-0.364-0.028-0.547   c-0.005,0.184-0.027,0.363-0.027,0.547C44.772,44.813,44.781,44.812,44.791,44.812z"/><path fill="#ffffff" d="M28.338,26.119c-0.467-0.107-0.941-0.192-1.421-0.265c0.044,0.444,0.12,0.876,0.196,1.31   c0.488,0.085,0.968,0.193,1.442,0.317C28.461,27.035,28.396,26.579,28.338,26.119z"/><path fill="#ffffff" d="M49.735,39.896c-0.154,0.495-0.282,1.001-0.391,1.514c6.255-1.638,11.167-6.55,12.805-12.805   c-0.513,0.108-1.019,0.236-1.514,0.39C59.019,34.184,54.924,38.279,49.735,39.896z"/><path fill="#ffffff" d="M42.986,41.924c-0.073-0.479-0.157-0.954-0.265-1.421c-0.458-0.057-0.915-0.123-1.361-0.217   c0.124,0.474,0.232,0.953,0.317,1.441C42.111,41.804,42.543,41.88,42.986,41.924z"/><path fill="#ffffff" d="M28.196,24.051c0-9.166,7.429-16.594,16.595-16.594c9.165,0,16.595,7.428,16.595,16.594   c0,0.135-0.017,0.265-0.021,0.398c0.453-0.093,0.918-0.149,1.38-0.212c0.001-0.062,0.01-0.123,0.01-0.186   c0-9.923-8.043-17.965-17.964-17.965c-9.922,0-17.965,8.043-17.965,17.965c0,0.063,0.009,0.124,0.009,0.186   c0.463,0.063,0.928,0.12,1.381,0.213C28.213,24.316,28.196,24.186,28.196,24.051z"/><path fill="#ffffff" d="M61.026,27.481c0.474-0.124,0.953-0.232,1.441-0.317c0.075-0.434,0.151-0.867,0.196-1.31   c-0.479,0.073-0.954,0.157-1.421,0.265C61.187,26.578,61.12,27.035,61.026,27.481z"/><path fill="#ffffff" d="M47.902,41.728c0.086-0.488,0.194-0.967,0.318-1.441c-0.447,0.094-0.903,0.159-1.362,0.217   c-0.107,0.467-0.192,0.941-0.265,1.421C47.036,41.88,47.47,41.804,47.902,41.728z"/><path fill="#ffffff" d="M40.235,41.41c-0.108-0.514-0.236-1.02-0.391-1.515c-5.188-1.618-9.281-5.712-10.898-10.899   c-0.495-0.154-1.001-0.282-1.515-0.391C29.068,34.86,33.98,39.772,40.235,41.41z"/><path fill="#ffffff" d="M44.791,42.016c0.063,0,0.124-0.009,0.186-0.009c0.063-0.463,0.12-0.928,0.213-1.38   c-0.134,0.003-0.264,0.02-0.398,0.02c-0.135,0-0.266-0.017-0.4-0.02c0.093,0.452,0.15,0.917,0.213,1.38   C44.667,42.007,44.728,42.016,44.791,42.016z"/><path fill="#ffffff" d="M49.006,45.24c0.013,0.564,0.054,1.121,0.122,1.669c7.134,1.647,12.738,7.252,14.386,14.385   c0.548,0.068,1.104,0.109,1.668,0.122C63.513,53.301,57.121,46.909,49.006,45.24z"/><path fill="#ffffff" d="M44.74,46.403c0.017,0,0.034-0.003,0.051-0.003c0.017,0,0.033,0.002,0.049,0.003   c-0.024-0.327-0.041-0.656-0.05-0.987C44.781,45.748,44.765,46.076,44.74,46.403z"/><path fill="#ffffff" d="M46.432,46.483c0.431,0.036,0.853,0.097,1.274,0.161c-0.053-0.532-0.076-1.073-0.081-1.617   c-0.422-0.058-0.845-0.104-1.273-0.137C46.353,45.428,46.387,45.957,46.432,46.483z"/><path fill="#ffffff" d="M24.187,62.796c-0.058,0.422-0.104,0.846-0.137,1.274c0.537-0.001,1.066-0.035,1.592-0.08   c0.036-0.431,0.097-0.854,0.161-1.275C25.271,62.768,24.731,62.791,24.187,62.796z"/><path fill="#ffffff" d="M64.02,65.581c0,0.017,0.003,0.033,0.003,0.05c0,10.621-8.61,19.231-19.231,19.231   c-10.622,0-19.232-8.609-19.232-19.231c0-0.017,0.002-0.033,0.002-0.05C25.044,65.62,24.527,65.66,24,65.66   c-0.009,0-0.019-0.001-0.028-0.001c0.015,11.483,9.33,20.791,20.818,20.791c11.488,0,20.802-9.308,20.818-20.791   c-0.01,0-0.019,0.001-0.028,0.001C65.054,65.66,64.537,65.62,64.02,65.581z"/><path fill="#ffffff" d="M40.452,46.91c0.068-0.549,0.108-1.105,0.122-1.67c-8.115,1.67-14.506,8.062-16.175,16.176   c0.564-0.013,1.121-0.054,1.669-0.122C27.715,54.162,33.319,48.558,40.452,46.91z"/><path fill="#ffffff" d="M43.229,44.891c-0.429,0.032-0.852,0.079-1.272,0.137c-0.006,0.545-0.029,1.085-0.082,1.617   c0.421-0.064,0.843-0.125,1.273-0.161C43.192,45.957,43.227,45.428,43.229,44.891z"/><path fill="#ffffff" d="M63.778,62.715c0.064,0.422,0.125,0.845,0.161,1.275c0.525,0.045,1.055,0.079,1.591,0.08   c-0.031-0.429-0.079-0.853-0.136-1.274C64.85,62.791,64.31,62.768,63.778,62.715z"/><path fill="#ffffff" d="M44.763,44.869c0,0.185,0.022,0.364,0.027,0.548c0.005-0.184,0.028-0.363,0.028-0.548   c-0.009,0-0.018,0.001-0.027,0.001S44.772,44.869,44.763,44.869z"/><path fill="#ffffff" d="M44.818,44.869c0.185,0,0.364-0.022,0.548-0.028c-0.184-0.005-0.363-0.027-0.548-0.027   c0,0.009,0.001,0.019,0.001,0.028S44.818,44.859,44.818,44.869z"/><path fill="#ffffff" d="M44.763,44.813c-0.185,0-0.364,0.022-0.547,0.027c0.184,0.005,0.363,0.028,0.547,0.028   c0-0.009-0.001-0.018-0.001-0.027S44.763,44.823,44.763,44.813z"/><path fill="#ffffff" d="M61.386,65.631c0,9.166-7.43,16.596-16.595,16.596c-9.166,0-16.595-7.43-16.595-16.596   c0-0.135,0.017-0.265,0.02-0.398c-0.453,0.093-0.918,0.149-1.381,0.213c0,0.062-0.009,0.123-0.009,0.186   c0,9.922,8.043,17.965,17.965,17.965c9.921,0,17.964-8.043,17.964-17.965c0-0.062-0.009-0.123-0.01-0.186   c-0.462-0.063-0.927-0.12-1.38-0.213C61.369,65.366,61.386,65.496,61.386,65.631z"/><path fill="#ffffff" d="M49.345,48.271c0.107,0.515,0.236,1.021,0.391,1.516c5.188,1.617,9.284,5.712,10.901,10.901   c0.494,0.154,1,0.282,1.514,0.39C60.513,54.821,55.6,49.908,49.345,48.271z"/><path fill="#ffffff" d="M28.555,62.201c-0.474,0.123-0.953,0.231-1.441,0.317c-0.076,0.434-0.152,0.866-0.197,1.311   c0.479-0.073,0.955-0.157,1.421-0.266C28.395,63.104,28.461,62.647,28.555,62.201z"/><path fill="#ffffff" d="M41.678,47.953c-0.085,0.489-0.193,0.969-0.317,1.443c0.446-0.094,0.902-0.16,1.361-0.217   c0.108-0.468,0.192-0.942,0.265-1.423C42.544,47.802,42.111,47.878,41.678,47.953z"/><path fill="#ffffff" d="M61.243,63.564c0.467,0.107,0.941,0.191,1.421,0.265c-0.044-0.444-0.121-0.877-0.196-1.311   c-0.488-0.086-0.968-0.193-1.441-0.317C61.121,62.647,61.187,63.104,61.243,63.564z"/><path fill="#ffffff" d="M46.593,47.757c0.073,0.479,0.157,0.955,0.266,1.423c0.459,0.057,0.915,0.122,1.362,0.217   c-0.124-0.475-0.232-0.954-0.318-1.443C47.47,47.878,47.036,47.801,46.593,47.757z"/><path fill="#ffffff" d="M39.844,49.787c0.155-0.495,0.283-1.002,0.391-1.516c-6.255,1.638-11.167,6.551-12.805,12.806   c0.514-0.107,1.02-0.236,1.515-0.391C30.562,55.499,34.656,51.404,39.844,49.787z"/><path fill="#ffffff" d="M44.791,47.666c-0.063,0-0.124,0.009-0.187,0.01c-0.063,0.463-0.12,0.929-0.213,1.382   c0.134-0.004,0.265-0.021,0.4-0.021s0.265,0.017,0.398,0.021c-0.093-0.453-0.15-0.919-0.213-1.382   C44.914,47.675,44.854,47.666,44.791,47.666z"/></g></svg>
