<svg xmlns="http://www.w3.org/2000/svg" xmlns:xlink="http://www.w3.org/1999/xlink" version="1.1" x="100px" y="100px" viewBox="10 15 120 70"><style>.cls-1{fill:#fff;}</style><path class="cls-1" d="M84.935,38.608c0-0.687-0.347-1.327-0.921-1.702L51.112,15.397c-0.677-0.442-1.549-0.442-2.227,0L15.986,36.906  c-0.574,0.375-0.921,1.016-0.921,1.702s0.347,1.327,0.921,1.702L30.807,50l-14.82,9.689c-0.574,0.375-0.921,1.016-0.921,1.702  s0.347,1.327,0.921,1.702l32.899,21.509c0.339,0.222,0.726,0.332,1.113,0.332c0.387,0,0.775-0.11,1.113-0.332l32.901-21.509  c0.574-0.375,0.921-1.016,0.921-1.702s-0.347-1.327-0.921-1.702L69.193,50l14.82-9.689C84.588,39.936,84.935,39.295,84.935,38.608z   M38.609,50.24L38.241,50l0.368-0.24V50.24z M41.05,51.836l-1.627-1.064v-1.543l1.627-1.064V51.836z M43.491,53.432l-1.627-1.062  v-4.738l1.627-1.062V53.432z M45.932,55.028l-1.627-1.063v-7.93l1.627-1.063V55.028z M48.372,56.624l-1.627-1.063V44.439  l1.627-1.063V56.624z M50.813,57.155l-0.814,0.532l-0.812-0.531V42.844l0.812-0.531l0.814,0.532V57.155z M53.255,55.559  l-1.627,1.064V43.377l1.627,1.064V55.559z M55.696,53.963l-1.628,1.064V44.973l1.628,1.064V53.963z M58.136,52.367l-1.626,1.064  v-6.863l1.626,1.064V52.367z M60.577,50.771l-1.626,1.064v-3.672l1.626,1.064V50.771z M61.391,50.24v-0.48L61.759,50L61.391,50.24z   M65.476,47.57L51.112,38.18c-0.677-0.442-1.549-0.442-2.227,0L34.524,47.57l-13.708-8.962l29.183-19.079l29.185,19.079  L65.476,47.57z"/>
</svg>
